<svg width="300" height="189" viewBox="0 0 300 189" fill="none" xmlns="http://www.w3.org/2000/svg">
<path d="M122.403 188.163C74.7967 188.38 36.2039 149.962 36.2039 102.355C36.2039 54.748 74.7967 15.9789 122.403 15.7618L149.91 15.6364V188.037L122.403 188.163Z" fill="#B8B8FF"/>
<path d="M177.417 15.511C225.023 15.2939 263.616 53.7112 263.616 101.318C263.616 148.925 225.023 187.695 177.417 187.912L149.91 188.037V15.6364L177.417 15.511Z" fill="#B8B8FF"/>
<path d="M106.279 151.529C80.2322 151.648 59.117 130.629 59.117 104.582C59.117 78.5348 80.2322 57.3231 106.279 57.2043L148.86 57.0102V151.335L106.279 151.529Z" fill="#3B3292"/>
<path d="M191.441 56.8161C217.488 56.6973 238.603 77.7164 238.603 103.764C238.603 129.811 217.488 151.022 191.441 151.141L148.86 151.335V57.0102L191.441 56.8161Z" fill="#3B3292"/>
<path d="M117.036 151.712C117.036 138.354 131.427 127.526 149.178 127.526C166.93 127.526 181.32 138.354 181.32 151.712C181.32 165.07 166.93 175.898 149.178 175.898C131.427 175.898 117.036 165.07 117.036 151.712Z" fill="#B8B8FF"/>
<path d="M300 135.151C300.042 144.288 292.668 151.696 283.53 151.696C274.393 151.696 266.951 144.288 266.91 135.151L266.797 110.334H299.887L300 135.151Z" fill="#1384BC"/>
<path d="M266.684 85.5163C266.642 76.3789 274.016 68.9715 283.153 68.9715C292.291 68.9715 299.732 76.3789 299.774 85.5164L299.887 110.334H266.797L266.684 85.5163Z" fill="#50CDFF"/>
<path d="M109.519 38.7933C98.9071 38.8417 90.3043 30.278 90.3043 19.6659C90.3043 9.05377 98.9071 0.411701 109.519 0.363314L149.337 0.181756V38.6117L109.519 38.7933Z" fill="#B8B8FF"/>
<path d="M189.156 0.000204047C199.768 -0.0481833 208.371 8.51543 208.371 19.1276C208.371 29.7397 199.768 38.3818 189.156 38.4302L149.337 38.6117V0.181756L189.156 0.000204047Z" fill="#B8B8FF"/>
<path d="M33.3165 132.605C33.3582 141.742 25.9845 149.15 16.8469 149.15C7.70938 149.15 0.268149 141.742 0.226486 132.605L0.113328 107.788H33.2033L33.3165 132.605Z" fill="#FDE4E9"/>
<path d="M0.000175694 82.9704C-0.0414881 73.833 7.33219 66.4256 16.4697 66.4256C25.6073 66.4256 33.0485 73.833 33.0902 82.9705L33.2033 107.788H0.113328L0.000175694 82.9704Z" fill="#F6686A"/>
<path d="M74.7105 103.961C74.7105 101.649 75.1286 99.3871 75.9646 97.174C76.8006 95.0101 78.0055 93.043 79.5793 91.2725C81.153 89.5021 83.071 88.1005 85.3332 87.0677C87.6446 86.035 90.2757 85.5186 93.2265 85.5186C96.128 85.5186 98.7099 86.035 100.972 87.0677C103.234 88.1005 105.152 89.4775 106.726 91.1988C108.3 92.9692 109.505 94.9364 110.341 97.1003C111.177 99.3133 111.595 101.551 111.595 103.813C111.595 105.534 111.349 107.133 110.857 108.608C110.415 110.133 109.849 111.436 109.16 112.518C108.521 113.6 107.882 114.362 107.243 114.805C106.652 115.493 106.087 116.059 105.546 116.501C105.005 116.993 104.316 117.19 103.48 117.092C102.939 116.944 102.448 116.723 102.005 116.428C101.562 116.133 101.12 115.764 100.677 115.321C99.2017 114.092 98.6362 112.887 98.9804 111.706C99.2755 111.067 99.6197 110.428 100.013 109.788C100.407 109.198 100.775 108.584 101.12 107.944C101.513 107.354 101.808 106.715 102.005 106.026C102.251 105.387 102.374 104.649 102.374 103.813C102.374 102.092 101.98 100.543 101.193 99.1658C100.407 97.838 99.3247 96.8052 97.9476 96.0675C96.5706 95.3298 94.9723 94.961 93.1527 94.961C91.3822 94.961 89.7839 95.3298 88.3577 96.0675C86.9807 96.8052 85.8988 97.838 85.1119 99.1658C84.325 100.494 83.9316 101.994 83.9316 103.666C83.9316 104.551 84.03 105.362 84.2267 106.1C84.4234 106.838 84.6939 107.477 85.0381 108.018C85.3824 108.608 85.7266 109.1 86.0709 109.493C86.4152 110.034 86.7348 110.526 87.0299 110.969C87.325 111.411 87.4725 111.903 87.4725 112.444C87.5217 113.034 87.325 113.624 86.8824 114.215C86.4397 114.805 85.7512 115.469 84.8168 116.206C84.03 116.846 83.2677 117.215 82.53 117.313C81.8415 117.411 81.1776 117.264 80.5383 116.87C79.8989 116.477 79.2596 115.813 78.6203 114.879C78.1285 114.338 77.5629 113.501 76.9236 112.37C76.3334 111.288 75.8171 110.01 75.3745 108.534C74.9318 107.108 74.7105 105.584 74.7105 103.961Z" fill="white"/>
<path d="M190.231 103.961C190.231 101.649 190.649 99.3871 191.485 97.174C192.321 95.0101 193.526 93.043 195.1 91.2725C196.673 89.5021 198.591 88.1005 200.854 87.0677C203.165 86.035 205.796 85.5186 208.747 85.5186C211.648 85.5186 214.23 86.035 216.493 87.0677C218.755 88.1005 220.673 89.4775 222.246 91.1988C223.82 92.9692 225.025 94.9364 225.861 97.1003C226.697 99.3133 227.115 101.551 227.115 103.813C227.115 105.534 226.869 107.133 226.378 108.608C225.935 110.133 225.369 111.436 224.681 112.518C224.042 113.6 223.402 114.362 222.763 114.805C222.173 115.493 221.607 116.059 221.066 116.501C220.525 116.993 219.837 117.19 219.001 117.092C218.46 116.944 217.968 116.723 217.525 116.428C217.083 116.133 216.64 115.764 216.197 115.321C214.722 114.092 214.156 112.887 214.501 111.706C214.796 111.067 215.14 110.428 215.534 109.788C215.927 109.198 216.296 108.584 216.64 107.944C217.033 107.354 217.329 106.715 217.525 106.026C217.771 105.387 217.894 104.649 217.894 103.813C217.894 102.092 217.501 100.543 216.714 99.1658C215.927 97.838 214.845 96.8052 213.468 96.0675C212.091 95.3298 210.493 94.961 208.673 94.961C206.903 94.961 205.304 95.3298 203.878 96.0675C202.501 96.8052 201.419 97.838 200.632 99.1658C199.845 100.494 199.452 101.994 199.452 103.666C199.452 104.551 199.55 105.362 199.747 106.1C199.944 106.838 200.214 107.477 200.558 108.018C200.903 108.608 201.247 109.1 201.591 109.493C201.936 110.034 202.255 110.526 202.55 110.969C202.845 111.411 202.993 111.903 202.993 112.444C203.042 113.034 202.845 113.624 202.403 114.215C201.96 114.805 201.272 115.469 200.337 116.206C199.55 116.846 198.788 117.215 198.05 117.313C197.362 117.411 196.698 117.264 196.059 116.87C195.419 116.477 194.78 115.813 194.141 114.879C193.649 114.338 193.083 113.501 192.444 112.37C191.854 111.288 191.337 110.01 190.895 108.534C190.452 107.108 190.231 105.584 190.231 103.961Z" fill="white"/>
</svg>
