<svg width="289" height="147" viewBox="0 0 289 147" fill="none" xmlns="http://www.w3.org/2000/svg">
<path d="M0 30C0 13.4315 13.4315 0 30 0H259C275.569 0 289 13.4315 289 30V93C289 109.569 275.569 123 259 123H30C13.4315 123 0 109.569 0 93V30Z" fill="#F7F7FC"/>
<path d="M0 30C0 13.4315 13.4315 0 30 0H259C275.569 0 289 13.4315 289 30V93C289 109.569 275.569 123 259 123H30C13.4315 123 0 109.569 0 93V30Z" fill="#F7F7FC"/>
<path d="M149.643 145.079C148.511 147.186 145.489 147.186 144.357 145.079L132.053 122.169C130.98 120.171 132.427 117.75 134.696 117.75H159.304C161.573 117.75 163.02 120.171 161.947 122.169L149.643 145.079Z" fill="#F7F7FC"/>
</svg>
